<?xml version="1.0" encoding="utf-8"?>
<!-- Generator: Adobe Illustrator 16.0.0, SVG Export Plug-In . SVG Version: 6.00 Build 0)  -->
<!DOCTYPE svg PUBLIC "-//W3C//DTD SVG 1.1//EN" "http://www.w3.org/Graphics/SVG/1.1/DTD/svg11.dtd">
<svg version="1.1" id="Layer_1" xmlns="http://www.w3.org/2000/svg" xmlns:xlink="http://www.w3.org/1999/xlink" x="0px" y="0px"
	 width="576px" height="720px" viewBox="0 0 576 720" enable-background="new 0 0 576 720" xml:space="preserve">
<g>
	<path fill="#FFFFFF" d="M520.697,107.984c0,13.095,2.188,26.652-0.457,39.188c-5.505,26.112-19.089,47.87-42.022,63.008
		c-7.201,4.751-14.076,10.119-20.534,15.842c-12.359,10.957-25.48,19.379-45.044,15.327c2.937,3.428,4.343,5.073,4.943,5.773
		c-19.586,12.716-38.8,25.58-58.409,37.803c-15.06,9.389-24.783,22.487-30.229,39.118c-1.074,3.275-2.561,6.411-3.681,9.671
		c-17.969,52.364-52.448,78.655-108.471,82.911c-4.906,0.375-9.725,1.898-14.322,5.666c9.963,0,19.927,0,29.889,0
		c0.333,1.127,0.664,2.25,0.997,3.379c-14.906,7.215-29.811,14.438-47.52,23.014c7.151,0.591,11.365,0.935,15.579,1.279
		c0.103,0.783,0.207,1.564,0.31,2.342c-10.254,1.711-20.508,3.418-31.956,5.32c3.031,2.83,5.339,4.988,8.577,8.01
		c-6.084-0.979-11.208-1.803-16.331-2.625c-0.443,0.883-0.887,1.771-1.331,2.66c6.651,5.109,13.304,10.213,19.955,15.322
		c-0.13,0.436-0.262,0.873-0.392,1.313c-9.332-4.129-18.661-8.258-29.872-13.219c0,13.314,0,24.369,0,35.42
		c-1.134,0.099-2.268,0.189-3.401,0.285c-1.15-12.229-2.302-24.451-3.451-36.676c-1.079-0.31-2.158-0.613-3.236-0.924
		c-4.422,10.639-12.376,21.237-12.516,31.932c-0.273,21.07-13.351,34.055-23.826,49.234c-6.473,9.379-11.853,19.51-17.974,29.145
		c-0.938,1.478-3.227,2.098-4.893,3.113c-1.146-0.635-2.294-1.267-3.44-1.9c12.121-37.309,24.243-74.625,36.075-111.045
		c-5.711,0-13.291,0-22.611,0c7.092-1.113,12.502-1.961,16.247-2.551c-8.892-4.83-19.888-8.008-26.218-15.26
		c-3.913-4.484-0.725-15.164,1.737-22.896c2.421,5.642,3.671,12.363,7.602,16.609c3.801,4.108,10.361,5.662,16.914,6.826
		c-11.003-12.367-18.195-25.66-17.26-41.79c0.257-4.442,4.657-8.647,7.157-12.961c4.104,3.013,8.204,6.023,13.898,10.203
		c-7.477,1.896-14.586,2.926-14.57,3.824c0.093,5.139,0.302,13.103,3.399,14.813c7.92,4.377,17.381,5.967,26.776,8.836
		c6.164-21.658,5.983-39.048-10.15-54.298c4.526,3.095,9.051,6.183,14.219,9.705c0.409-3.731,0.882-8.045,1.491-13.594
		c1.128,3.031,1.877,5.047,2.626,7.063c0.415-31.846,5.403-62.284,25.417-90.918c-1.514,9.925-2.712,17.776-3.908,25.623
		c0.946,0.528,1.893,1.054,2.84,1.579c16.03-33.786,31.762-67.833,71.574-82.382c-13.247,18.253-28.451,35.316-26.33,59.972
		c3.318-6.757,7.104-13.33,9.88-20.303c16.951-42.591,48.552-64.205,93.935-67.662c19.765-1.508,39.577-4.144,58.966-8.187
		c13.734-2.867,28.592-4.697,39.122-16.118c0.518-0.559,1.586-0.899,2.377-0.869c26.618,1.133,42.365-20.384,63.597-30.455
		c1.549-0.733,3.22-1.208,4.796-1.886c19.354-8.295,38.852-16.461,38.194-43.52C517.191,107.38,518.943,107.682,520.697,107.984z
		 M102.448,518.652c1.849,1.346,3.694,2.69,5.542,4.041c4.469-6.181,9.714-11.953,13.2-18.646
		c3.958-7.606,5.986-16.188,9.471-24.082c20.66-46.75,50.408-87.533,83.381-126.168c9.786-11.467,19.587-22.917,29.381-34.375
		C180.295,374.738,125.674,435.973,102.448,518.652z M151.891,398.887c25.683-26.459,49.728-54.298,77.013-78.479
		c27.608-24.468,58.424-45.313,87.836-67.747C251.613,289.661,195.664,336.938,151.891,398.887z"/>
	<path fill="#FFFFFF" d="M235.163,538.553c64.354,0,128.702,0,187.072,0C404.751,544.494,326.484,546.068,235.163,538.553z"/>
	<path fill="#FFFFFF" d="M137.614,529.514c29.107,2.148,58.214,4.297,87.321,6.439c-0.083,1.102-0.165,2.205-0.246,3.307
		c-29.09-2.352-58.177-4.698-87.265-7.045C137.488,531.316,137.551,530.412,137.614,529.514z"/>
	<path fill="#FFFFFF" d="M249.099,571.684c15.256-5.366,32.695-2.416,39.971,6.201C273.681,588.447,263.264,567.604,249.099,571.684
		z"/>
</g>
</svg>
